<svg width="95" height="95" viewBox="0 0 95 95" fill="none" xmlns="http://www.w3.org/2000/svg">
<g id="OBJECTS" clip-path="url(#clip0_1_133)">
<path id="Vector" d="M47.49 47.36L2.48999 32.73C5.47431 23.1611 11.4639 14.8091 19.57 8.91321C27.6762 3.01733 37.467 -0.108301 47.49 3.86862e-05V47.36Z" fill="#171E27" fill-opacity="0.6"/>
<path id="Vector_2" d="M47.4899 47.36L75.3299 85.67C65.168 93.0519 52.49 96.0948 40.0846 94.1295C27.6791 92.1641 16.5625 85.3514 9.17995 75.19C4.67975 69.1984 1.71454 62.1964 0.54317 54.7951C-0.628202 47.3939 0.0298738 39.8184 2.45995 32.73L47.4899 47.36Z" fill="#171E27" fill-opacity="0.8"/>
<path id="Vector_3" d="M47.49 47.36L75.33 9.05005C80.3614 12.7045 84.6235 17.3145 87.8728 22.6165C91.1221 27.9186 93.295 33.8089 94.2673 39.951C95.2396 46.093 94.9922 52.3664 93.5394 58.4129C92.0866 64.4593 89.4567 70.1603 85.8 75.19C82.9116 79.2367 79.3739 82.7778 75.33 85.6701L47.49 47.36Z" fill="#A9C2CB" fill-opacity="0.6"/>
<path id="Vector_4" d="M47.49 47.36V2.5345e-05C57.5089 -0.154417 67.2974 3.00999 75.33 9.00003L47.49 47.36Z" fill="#171E27" fill-opacity="0.2"/>
</g>
<defs>
<clipPath id="clip0_1_133">
<rect width="94.86" height="94.71" fill="white"/>
</clipPath>
</defs>
</svg>
