<svg width="194" height="45" viewBox="0 0 194 45" fill="none" xmlns="http://www.w3.org/2000/svg">
<g id="OBJECTS" clip-path="url(#clip0_1_42)">
<path id="Vector" d="M1.17004 41.34C1.17004 41.34 4.26005 44.4 14.55 39.64C24.84 34.88 19.7 43.2801 24.55 42.3101C29.4 41.3401 29.69 36.52 34.07 38.16C38.45 39.8 37.93 43.72 41.53 38.79C45.13 33.86 45.39 1.17004 45.39 1.17004L47.97 40.17C47.97 40.17 57.97 44.93 65.47 32.68C72.97 20.43 78.59 30.47 79.11 35.57C79.63 40.67 87.1101 44.57 91.2001 38.98C91.2001 38.98 94.04 36.2501 97.38 41.7001C100.72 47.1501 104.59 37.1 104.59 37.1C104.59 37.1 109.48 35.1 111.28 41.87L117.97 1.19004L121.83 41.36C124.48 41.9682 127.257 41.6796 129.726 40.5395C132.194 39.3993 134.215 37.4721 135.47 35.0601C140.36 26.3801 147.57 23.49 153.23 36.59C153.23 36.59 158.36 47.1101 170.02 38.09C170.02 38.09 177.26 32.8101 181.69 39.4501H191.95" stroke="url(#paint0_linear_1_42)" stroke-width="2.34" stroke-linecap="round" stroke-linejoin="round"/>
</g>
<defs>
<linearGradient id="paint0_linear_1_42" x1="4.38966e-05" y1="22.23" x2="193.16" y2="22.23" gradientUnits="userSpaceOnUse">
<stop stop-color="#171E27"/>
<stop offset="1" stop-color="#A9C2CB"/>
</linearGradient>
<clipPath id="clip0_1_42">
<rect width="193.17" height="44.47" fill="white"/>
</clipPath>
</defs>
</svg>
