<svg width="40" height="40" viewBox="0 0 40 40" fill="none" xmlns="http://www.w3.org/2000/svg">
<path fill-rule="evenodd" clip-rule="evenodd" d="M24.6804 11.2435C23.6847 10.7113 22.6089 10.3545 21.5 10.1851V0.0561576C24.2687 0.264391 26.9696 1.04739 29.428 2.36141C32.3286 3.91184 34.8022 6.15371 36.6294 8.88843C38.4567 11.6231 39.5814 14.7663 39.9037 18.0395C39.9188 18.1929 39.9322 18.3463 39.9437 18.4998H29.8148C29.5956 17.0653 29.0641 15.6939 28.2555 14.4837C27.3484 13.1261 26.1204 12.0132 24.6804 11.2435ZM8.8886 3.37044C11.7604 1.45158 15.0727 0.313902 18.5 0.0561523V10.1851C17.0693 10.4037 15.6974 10.9336 14.4839 11.7444C12.8511 12.8354 11.5785 14.386 10.8271 16.2003C10.0756 18.0145 9.87895 20.0108 10.262 21.9368C10.5468 23.3682 11.1422 24.713 11.9993 25.8793L4.83708 33.0415C2.59583 30.4358 1.05812 27.2892 0.384303 23.9016C-0.387401 20.022 0.00866568 16.0007 1.52242 12.3462C3.03617 8.69164 5.59962 5.56807 8.8886 3.37044ZM6.95842 35.1628C9.06347 36.9734 11.5269 38.3295 14.1944 39.1386C17.3418 40.0934 20.676 40.2572 23.9019 39.6155C27.0977 38.9799 30.0893 37.5731 32.6168 35.5181L23.6027 29.2519C23.0646 29.4614 22.5074 29.6244 21.9371 29.7378C20.3356 30.0563 18.6804 29.975 17.1179 29.501C16.0375 29.1733 15.0246 28.6649 14.1206 28.0006L6.95842 35.1628ZM29.173 23.7994C29.4798 23.0587 29.6946 22.2864 29.8148 21.4998H39.9437C39.7851 23.6086 39.2925 25.6863 38.4776 27.6535C37.5998 29.7727 36.367 31.7181 34.8389 33.4091L26.431 27.5644C27.63 26.5451 28.5702 25.2548 29.173 23.7994Z" fill="white"/>
</svg>
