<svg width="36" height="40" viewBox="0 0 36 40" fill="none" xmlns="http://www.w3.org/2000/svg">
<path fill-rule="evenodd" clip-rule="evenodd" d="M14 0C11.7909 0 10 1.79086 10 4C10 6.20914 11.7909 8 14 8H22C24.2091 8 26 6.20914 26 4C26 1.79086 24.2091 0 22 0H14ZM7 4.00015H4C1.79086 4.00015 0 5.79101 0 8.00015V36.0002C0 38.2093 1.79086 40.0002 4 40.0002H32C34.2091 40.0002 36 38.2093 36 36.0002V8.00015C36 5.79101 34.2091 4.00015 32 4.00015H29C29 7.86614 25.866 11.0002 22 11.0002H14C10.134 11.0002 7 7.86614 7 4.00015ZM9.25 16C9.25 15.5858 9.58579 15.25 10 15.25H26C26.4142 15.25 26.75 15.5858 26.75 16C26.75 16.4142 26.4142 16.75 26 16.75H10C9.58579 16.75 9.25 16.4142 9.25 16ZM10 23.25C9.58579 23.25 9.25 23.5858 9.25 24C9.25 24.4142 9.58579 24.75 10 24.75H26C26.4142 24.75 26.75 24.4142 26.75 24C26.75 23.5858 26.4142 23.25 26 23.25H10ZM9.25 32C9.25 31.5858 9.58579 31.25 10 31.25H18C18.4142 31.25 18.75 31.5858 18.75 32C18.75 32.4142 18.4142 32.75 18 32.75H10C9.58579 32.75 9.25 32.4142 9.25 32Z" fill="white"/>
</svg>
