<svg width="40" height="40" viewBox="0 0 40 40" fill="none" xmlns="http://www.w3.org/2000/svg">
<path fill-rule="evenodd" clip-rule="evenodd" d="M4.35247 4.35247C4.88961 3.81533 5.77642 3.46409 7.16438 3.50282C8.55671 3.54167 10.3074 3.97576 12.3204 4.83846C13.9278 5.52737 15.6558 6.46947 17.4397 7.64095C15.6955 9.01404 13.9522 10.56 12.2562 12.2561C10.56 13.9522 9.01405 15.6956 7.64094 17.4398C6.46946 15.6559 5.52736 13.9279 4.83845 12.3204C3.97576 10.3074 3.54167 8.55674 3.50282 7.16441C3.46409 5.77643 3.81533 4.88962 4.35247 4.35247ZM13.5021 2.08103C15.5655 2.96532 17.7645 4.20419 20 5.74891C22.2354 4.2042 24.4345 2.96534 26.4978 2.08105C28.7178 1.1296 30.8541 0.556963 32.7518 0.504007C34.654 0.450929 36.4604 0.922794 37.7688 2.23118C39.0771 3.53957 39.549 5.34598 39.4959 7.24811C39.443 9.14588 38.8703 11.2821 37.9189 13.5022C37.0346 15.5655 35.7957 17.7646 34.251 20.0001C35.7957 22.2354 37.0345 24.4344 37.9187 26.4977C38.8702 28.7178 39.4428 30.854 39.4957 32.7518C39.5488 34.6539 39.077 36.4603 37.7686 37.7687C36.4602 39.0771 34.6538 39.549 32.7517 39.4959C30.8539 39.4429 28.7176 38.8703 26.4976 37.9189C24.4343 37.0346 22.2353 35.7958 20 34.2511C17.7646 35.7958 15.5656 37.0346 13.5023 37.9189C11.2823 38.8703 9.14601 39.443 7.24825 39.4959C5.34612 39.549 3.53971 39.0771 2.23133 37.7687C0.922951 36.4604 0.451089 34.6539 0.504167 32.7518C0.557122 30.854 1.12976 28.7178 2.0812 26.4977C2.96546 24.4345 4.20427 22.2354 5.74891 20.0001C4.20419 17.7646 2.96532 15.5655 2.08102 13.5022C1.12958 11.2821 0.556942 9.14586 0.503986 7.24809C0.450908 5.34596 0.92277 3.53954 2.23115 2.23116C3.53953 0.922773 5.34594 0.450908 7.24806 0.503986C9.14583 0.556942 11.2821 1.12958 13.5021 2.08103ZM14.3775 14.3774C16.2315 12.5233 18.1291 10.8734 20 9.45343C21.8709 10.8734 23.7684 12.5233 25.6224 14.3774C27.4765 16.2315 29.1265 18.1291 30.5465 20.0001C29.1265 21.871 27.4766 23.7685 25.6226 25.6226C23.7685 27.4767 21.8709 29.1266 20 30.5466C18.129 29.1266 16.2314 27.4767 14.3773 25.6225C12.5233 23.7685 10.8734 21.871 9.45342 20.0001C10.8734 18.1291 12.5234 16.2315 14.3775 14.3774ZM27.7437 12.256C29.4399 13.9522 30.9859 15.6956 32.359 17.4398C33.5305 15.6559 34.4725 13.9279 35.1615 12.3204C36.0242 10.3075 36.4582 8.55676 36.4971 7.16443C36.5358 5.77646 36.1846 4.88964 35.6474 4.3525C35.1103 3.81535 34.2235 3.46411 32.8355 3.50284C31.4432 3.54169 29.6925 3.97578 27.6796 4.83848C26.0721 5.52739 24.3441 6.46948 22.5602 7.64095C24.3044 9.01403 26.0477 10.56 27.7437 12.256ZM27.7439 27.7439C29.44 26.0478 30.9859 24.3045 32.359 22.5604C33.5304 24.3442 34.4724 26.0721 35.1613 27.6795C36.024 29.6924 36.4581 31.4431 36.4969 32.8355C36.5356 34.2234 36.1844 35.1103 35.6473 35.6474C35.1101 36.1846 34.2233 36.5358 32.8353 36.4971C31.443 36.4582 29.6923 36.0241 27.6794 35.1614C26.072 34.4725 24.344 33.5305 22.5602 32.3591C24.3045 30.986 26.0478 29.44 27.7439 27.7439ZM12.256 27.7439C13.9521 29.44 15.6955 30.986 17.4397 32.3591C15.6559 33.5305 13.9279 34.4726 12.3205 35.1614C10.3076 36.0241 8.55689 36.4582 7.16457 36.4971C5.7766 36.5358 4.88979 36.1846 4.35266 35.6474C3.81551 35.1103 3.46427 34.2235 3.503 32.8355C3.54185 31.4432 3.97594 29.6925 4.83864 27.6795C5.52751 26.0721 6.46956 24.3442 7.64096 22.5604C9.01402 24.3045 10.5599 26.0478 12.256 27.7439ZM20 24C22.2091 24 24 22.2091 24 20C24 17.7909 22.2091 16 20 16C17.7909 16 16 17.7909 16 20C16 22.2091 17.7909 24 20 24Z" fill="white"/>
</svg>
