<svg width="42" height="42" viewBox="0 0 42 42" fill="none" xmlns="http://www.w3.org/2000/svg">
<path fill-rule="evenodd" clip-rule="evenodd" d="M32.2663 0.425501C30.7962 1.30143 30.2926 3.24142 31.1413 4.75858L36.2638 13.9154C37.1125 15.4326 38.9922 15.9524 40.4623 15.0765C41.9323 14.2006 42.436 12.2606 41.5873 10.7434L36.4648 1.58655C35.616 0.0693863 33.7363 -0.450431 32.2663 0.425501ZM28.1166 5.34033L12.8846 14.4164C10.9246 15.5843 10.253 18.171 11.3847 20.1938L11.6769 20.7162C11.6649 20.7229 11.653 20.7297 11.6412 20.7368L4.093 25.2344L3.30887 23.8327C2.90441 23.1097 1.99044 22.8515 1.26746 23.256C0.54447 23.6604 0.286245 24.5744 0.690697 25.2974L3.7642 30.7915C4.16865 31.5145 5.08262 31.7727 5.80561 31.3682C6.5286 30.9638 6.78682 30.0498 6.38237 29.3268L5.5582 27.8536L13.1418 23.3348L13.4337 23.8566C14.5653 25.8795 17.0716 26.5726 19.0317 25.4047L21.7722 23.7717L13.7998 39.3157C13.4217 40.0528 13.7128 40.9569 14.4499 41.3349C15.187 41.713 16.0911 41.4219 16.4691 40.6848L25.3795 23.3122L34.2898 40.6848C34.6679 41.4219 35.5719 41.713 36.309 41.3349C37.0462 40.9569 37.3372 40.0528 36.9592 39.3157L27.298 20.4791L34.2874 16.3144C34.0494 16.0281 33.8342 15.7161 33.6462 15.38L28.5237 6.22316C28.3632 5.93628 28.2277 5.64108 28.1166 5.34033Z" fill="white"/>
</svg>
