<svg width="40" height="41" viewBox="0 0 40 41" fill="none" xmlns="http://www.w3.org/2000/svg">
<rect width="40" height="40" rx="12" fill="#A9C2CB"/>
<g filter="url(#filter0_d_2_32)">
<path fill-rule="evenodd" clip-rule="evenodd" d="M17.2041 12.1358C18.092 11.8846 19.0297 11.75 20 11.75C20.9703 11.75 21.908 11.8846 22.7959 12.1358C23.1945 12.2485 23.609 12.0168 23.7217 11.6182C23.8344 11.2196 23.6027 10.8051 23.2041 10.6924C22.1847 10.404 21.1097 10.25 20 10.25C18.8903 10.25 17.8153 10.404 16.7959 10.6924C16.3973 10.8051 16.1656 11.2196 16.2783 11.6182C16.391 12.0168 16.8055 12.2485 17.2041 12.1358ZM28.5 21.5C28.5 26.1944 24.6944 30 20 30C15.3056 30 11.5 26.1944 11.5 21.5C11.5 16.8056 15.3056 13 20 13C24.6944 13 28.5 16.8056 28.5 21.5ZM20.75 17C20.75 16.5858 20.4142 16.25 20 16.25C19.5858 16.25 19.25 16.5858 19.25 17V20.7007C18.8016 20.96 18.5 21.4448 18.5 22C18.5 22.8284 19.1716 23.5 20 23.5C20.8284 23.5 21.5 22.8284 21.5 22C21.5 21.4448 21.1984 20.96 20.75 20.7007V17Z" fill="white"/>
</g>
<defs>
<filter id="filter0_d_2_32" x="4.5" y="7.25" width="31" height="33.75" filterUnits="userSpaceOnUse" color-interpolation-filters="sRGB">
<feFlood flood-opacity="0" result="BackgroundImageFix"/>
<feColorMatrix in="SourceAlpha" type="matrix" values="0 0 0 0 0 0 0 0 0 0 0 0 0 0 0 0 0 0 127 0" result="hardAlpha"/>
<feOffset dy="4"/>
<feGaussianBlur stdDeviation="3.5"/>
<feComposite in2="hardAlpha" operator="out"/>
<feColorMatrix type="matrix" values="0 0 0 0 0.388451 0 0 0 0 0.459239 0 0 0 0 0.484722 0 0 0 0.8 0"/>
<feBlend mode="normal" in2="BackgroundImageFix" result="effect1_dropShadow_2_32"/>
<feBlend mode="normal" in="SourceGraphic" in2="effect1_dropShadow_2_32" result="shape"/>
</filter>
</defs>
</svg>
